<svg width="48" height="48" viewBox="0 0 48 48" fill="none" xmlns="http://www.w3.org/2000/svg">
<path d="M11 13L11 35L20 44L28 44L37 35L37 13L28 4L20 4L11 13Z" fill="#4DCDB6"/>
<path fill-rule="evenodd" clip-rule="evenodd" d="M10.2929 12.2929C10.1054 12.4804 10 12.7348 10 13L10 35C10 35.2652 10.1054 35.5196 10.2929 35.7071L19.2929 44.7071C19.4804 44.8946 19.7348 45 20 45L28 45C28.2652 45 28.5196 44.8946 28.7071 44.7071L37.7071 35.7071C37.8946 35.5196 38 35.2652 38 35L38 13C38 12.7348 37.8946 12.4804 37.7071 12.2929L28.7071 3.29289C28.5196 3.10536 28.2652 3 28 3L20 3C19.7348 3 19.4804 3.10536 19.2929 3.29289L10.2929 12.2929ZM20 4L11 13L11 35L20 44L28 44L37 35L37 13L28 4L20 4Z" fill="#02476F"/>
<path d="M11 35L11 13L18.5 15.5L18.5 32.5L11 35Z" fill="#61E9C0"/>
<path d="M20 4L11 13L18.5 15.5L24 9L28 4L20 4Z" fill="#B1FFF1"/>
<path d="M29.5 32.5L24 39L20 44L28 44L37 35L37 13L28 4L24 9L29.5 15.5L29.5 32.5Z" fill="#1EB5AC"/>
<path d="M37 13L37 35L29.5 32.5L29.5 15.5L37 13Z" fill="#2E90A6"/>
<path d="M36 18C36 18.5523 35.5523 19 35 19C34.4477 19 34 18.5523 34 18C34 17.4477 34.4477 17 35 17C35.5523 17 36 17.4477 36 18Z" fill="#3AA2B9"/>
<path d="M34.5 22.25C34.5 22.6642 34.1642 23 33.75 23C33.3358 23 33 22.6642 33 22.25C33 21.8358 33.3358 21.5 33.75 21.5C34.1642 21.5 34.5 21.8358 34.5 22.25Z" fill="#3AA2B9"/>
<path d="M36 21C36 21.2761 35.7761 21.5 35.5 21.5C35.2239 21.5 35 21.2761 35 21C35 20.7239 35.2239 20.5 35.5 20.5C35.7761 20.5 36 20.7239 36 21Z" fill="#3AA2B9"/>
<path d="M33.5 19.5C33.5 19.7761 33.2761 20 33 20C32.7239 20 32.5 19.7761 32.5 19.5C32.5 19.2239 32.7239 19 33 19C33.2761 19 33.5 19.2239 33.5 19.5Z" fill="#3AA2B9"/>
<path d="M36 15C36 15.2761 35.7761 15.5 35.5 15.5C35.2239 15.5 35 15.2761 35 15C35 14.7239 35.2239 14.5 35.5 14.5C35.7761 14.5 36 14.7239 36 15Z" fill="#3AA2B9"/>
<path d="M36 27C36 27.2761 35.7761 27.5 35.5 27.5C35.2239 27.5 35 27.2761 35 27C35 26.7239 35.2239 26.5 35.5 26.5C35.7761 26.5 36 26.7239 36 27Z" fill="#3AA2B9"/>
<path d="M36 24.5C36 24.7761 35.7761 25 35.5 25C35.2239 25 35 24.7761 35 24.5C35 24.2239 35.2239 24 35.5 24C35.7761 24 36 24.2239 36 24.5Z" fill="#3AA2B9"/>
<path d="M18.5 15.5L18.5 32.5L24 39L29.5 32.5234L29.5 15.5L24 9L18.5 15.5Z" fill="#63EAD1"/>
<path d="M18.5 32.5L18.5 15.5L24 9L29.5 15.5L18.5 32.5Z" fill="#84F8E3"/>
<path fill-rule="evenodd" clip-rule="evenodd" d="M24.3166 10.113C24.5303 10.2879 24.5618 10.6029 24.387 10.8166L20 16.1785V26.5C20 26.7762 19.7761 27 19.5 27C19.2239 27 19 26.7762 19 26.5V16C19 15.8846 19.0399 15.7727 19.113 15.6834L23.613 10.1834C23.7879 9.96967 24.1029 9.93817 24.3166 10.113Z" fill="#DFFFF9"/>
<path fill-rule="evenodd" clip-rule="evenodd" d="M12 14C12.2761 14 12.5 14.2239 12.5 14.5V33.5C12.5 33.7761 12.2761 34 12 34C11.7239 34 11.5 33.7761 11.5 33.5V14.5C11.5 14.2239 11.7239 14 12 14Z" fill="#70FFE5"/>
<path d="M34 36.25C34 36.6642 33.6642 37 33.25 37C32.8358 37 32.5 36.6642 32.5 36.25C32.5 35.8358 32.8358 35.5 33.25 35.5C33.6642 35.5 34 35.8358 34 36.25Z" fill="#0FA299"/>
<path d="M29 41.25C29 41.6642 28.6642 42 28.25 42C27.8358 42 27.5 41.6642 27.5 41.25C27.5 40.8358 27.8358 40.5 28.25 40.5C28.6642 40.5 29 40.8358 29 41.25Z" fill="#0FA299"/>
<path d="M31 39.25C31 39.6642 30.6642 40 30.25 40C29.8358 40 29.5 39.6642 29.5 39.25C29.5 38.8358 29.8358 38.5 30.25 38.5C30.6642 38.5 31 38.8358 31 39.25Z" fill="#0FA299"/>
<path d="M28.5 38C28.5 38.2761 28.2761 38.5 28 38.5C27.7239 38.5 27.5 38.2761 27.5 38C27.5 37.7239 27.7239 37.5 28 37.5C28.2761 37.5 28.5 37.7239 28.5 38Z" fill="#0FA299"/>
<path d="M32 38C32 38.2761 31.7761 38.5 31.5 38.5C31.2239 38.5 31 38.2761 31 38C31 37.7239 31.2239 37.5 31.5 37.5C31.7761 37.5 32 37.7239 32 38Z" fill="#0FA299"/>
<path d="M31 36C31 36.5523 30.5523 37 30 37C29.4477 37 29 36.5523 29 36C29 35.4477 29.4477 35 30 35C30.5523 35 31 35.4477 31 36Z" fill="#0FA299"/>
<path fill-rule="evenodd" clip-rule="evenodd" d="M20.8536 4.64645C21.0488 4.84171 21.0488 5.15829 20.8536 5.35355L13.3536 12.8536C13.1583 13.0488 12.8417 13.0488 12.6464 12.8536C12.4512 12.6583 12.4512 12.3417 12.6464 12.1464L20.1464 4.64645C20.3417 4.45118 20.6583 4.45118 20.8536 4.64645Z" fill="#E6FFFA"/>
</svg>
